<svg width="177" height="150" xmlns="http://www.w3.org/2000/svg"><g fill-rule="nonzero" fill="none"><path d="M123.875 128h-69.75C43.549 128 35 119.475 35 108.93V42.07C35 31.525 43.55 23 54.125 23h69.75C134.451 23 143 31.525 143 42.07v66.86c0 10.545-8.55 19.07-19.125 19.07Z" fill="#FF26BE"/><path d="M120.866 124h-65.69C46.265 124 39 116.763 39 107.886V45.114C39 36.237 46.265 29 55.176 29h65.647C129.783 29 137 36.237 137 45.114v62.73c.043 8.92-7.222 16.156-16.134 16.156Z" fill="#2E001F"/><path d="m77.894 72.035 12.798 24.587c.228.364.092.733-.277.733h-7.954c-.505 0-.733-.136-.96-.593-2.927-6.032-5.897-12.065-8.96-18.554h-.092a695.61 695.61 0 0 1-8.683 18.603c-.228.364-.456.504-.824.504h-7.534c-.456 0-.504-.364-.272-.64l12.522-23.86-12.11-24.13c-.276-.365 0-.641.273-.641h7.862c.456 0 .64.092.82.504 2.879 6.033 5.805 12.25 8.547 18.327h.092c2.65-6.033 5.577-12.294 8.41-18.283.229-.364.365-.592.826-.592h7.357c.364 0 .505.276.277.64L77.894 72.036Zm15.04 7.45c0-10.649 7.085-18.968 18.326-18.968.96 0 1.46 0 2.378.093V48.5c0-.276.228-.456.456-.456h7.222c.364 0 .456.136.456.364v41.957c0 1.233 0 2.786.228 4.48 0 .276-.092.364-.364.505A27.207 27.207 0 0 1 109.935 98c-9.92.04-17.006-6.081-17.001-18.516Zm20.7-11.698c-.641-.276-1.554-.456-2.65-.456-5.761 0-9.78 4.432-9.78 11.794 0 8.41 4.115 11.793 9.28 11.793 1.096 0 2.285-.136 3.154-.504V67.787h-.005Z" fill="#FFD9F2"/></g></svg>