<svg width="177" height="150" xmlns="http://www.w3.org/2000/svg"><g fill-rule="nonzero" fill="none"><path d="M74.28 22c-5.922.004-10.715 4.801-10.71 10.712-.005 5.911 4.793 10.708 10.715 10.712H85V32.716c.004-5.91-4.793-10.707-10.72-10.716.005 0 .005 0 0 0m0 28.571H45.715c-5.922.005-10.72 4.802-10.715 10.713-.009 5.91 4.789 10.707 10.71 10.716h28.57c5.923-.004 10.72-4.801 10.716-10.712C85 55.373 80.203 50.576 74.28 50.57Z" fill="#36C5F0"/><path d="M142 61.284c.004-5.911-4.793-10.708-10.716-10.713-5.923.005-10.72 4.802-10.716 10.713V72h10.716c5.923-.004 10.72-4.801 10.716-10.716Zm-28.572 0V32.712c.004-5.906-4.789-10.703-10.712-10.712-5.923.004-10.72 4.801-10.716 10.712v28.572c-.009 5.91 4.789 10.707 10.712 10.716 5.923-.004 10.72-4.801 10.716-10.716Z" fill="#2EB67D"/><path d="M102.715 129c5.922-.004 10.72-4.8 10.715-10.711.005-5.91-4.793-10.707-10.715-10.711H92v10.71c-.004 5.907 4.793 10.703 10.715 10.712Zm0-28.573h28.57c5.922-.005 10.72-4.801 10.715-10.711.009-5.91-4.789-10.707-10.71-10.716h-28.57c-5.923.004-10.72 4.8-10.716 10.711-.004 5.915 4.789 10.711 10.711 10.716Z" fill="#ECB22E"/><path d="M35 89.712c-.004 5.911 4.793 10.708 10.716 10.712 5.923-.004 10.72-4.801 10.716-10.712V79H45.716c-5.923.004-10.72 4.801-10.716 10.712Zm28.572 0v28.572c-.009 5.91 4.789 10.707 10.712 10.716 5.923-.004 10.72-4.801 10.716-10.712V89.72c.009-5.911-4.789-10.708-10.712-10.717-5.927 0-10.72 4.797-10.716 10.708 0 0 0 .004 0 0" fill="#E01E5A"/></g></svg>