<svg width="177" height="150" xmlns="http://www.w3.org/2000/svg"><g fill-rule="nonzero" fill="none"><path d="M102 74.691c-.434-3.49-2.17-6.98-4.773-9.16L52.534 29.758c-5.64-4.362-13.45-3.49-17.79 2.181-4.339 5.671-3.471 13.523 2.17 17.886L69.457 76l-32.543 26.174c-5.641 4.363-6.509 12.215-2.17 17.886 4.34 5.671 12.15 6.543 17.79 2.181l44.693-36.644C100.264 82.98 102 79.49 102 75.564v-.873Z" fill="#0D55FF"/><path d="M133.928 99H95.212c-.435 0-1.305 0-1.74.431l-29.146 22.845c-.435.43-.435.862 0 1.293 0 .431.435.431.87.431h69.167c6.96 0 13.05-6.034 12.615-13.362-.435-6.897-6.525-11.638-13.05-11.638" fill="#00C9DB"/><path d="M146 111.5c0 6.897-5.603 12.5-12.5 12.5s-12.5-5.603-12.5-12.5S126.603 99 133.5 99s12.5 5.603 12.5 12.5" fill="#7000F2"/></g></svg>