<svg width="177" height="150" xmlns="http://www.w3.org/2000/svg"><path d="M89.5 22C59.952 22 36 45.952 36 75.5S59.952 129 89.5 129 143 105.048 143 75.5c0-29.545-23.952-53.496-53.5-53.5Zm24.536 77.16a3.332 3.332 0 0 1-4.585 1.11c-12.562-7.678-28.377-9.412-46.999-5.159a3.331 3.331 0 0 1-3.993-2.508 3.329 3.329 0 0 1 2.508-3.994c20.377-4.654 37.86-2.65 51.963 5.966a3.336 3.336 0 0 1 1.106 4.585Zm6.545-14.563a4.174 4.174 0 0 1-5.738 1.373c-14.377-8.838-36.302-11.397-53.31-6.235a4.177 4.177 0 0 1-5.206-2.778 4.179 4.179 0 0 1 2.781-5.203c19.43-5.895 43.585-3.04 60.097 7.108 1.964 1.209 2.585 3.775 1.376 5.735Zm.563-15.172c-17.246-10.24-45.692-11.182-62.156-6.187a5 5 0 0 1-6.239-3.333c-.8-2.644.69-5.44 3.337-6.243 18.9-5.735 50.313-4.63 70.165 7.155A5.005 5.005 0 0 1 128 67.673a4.998 4.998 0 0 1-6.856 1.752Z" fill="#2EBD59" fill-rule="nonzero"/></svg>