<svg width="177" height="150" xmlns="http://www.w3.org/2000/svg"><g fill-rule="nonzero" fill="none"><path d="M132.39 22H45.61A9.61 9.61 0 0 0 36 31.61v86.78a9.61 9.61 0 0 0 9.61 9.61h86.78a9.61 9.61 0 0 0 9.61-9.61V31.61a9.61 9.61 0 0 0-9.61-9.61" fill="#DC395F"/><path d="M71.873 55.745c3.475 0 6.387-2.758 6.387-6.374 0-3.613-2.912-6.371-6.387-6.371-3.476 0-6.387 2.758-6.387 6.371 0 3.615 2.911 6.374 6.387 6.374M58.63 89.874a22.154 22.154 0 0 0-.564 4.787c0 5.613 3.006 9.339 9.393 9.339 5.297 0 9.591-3.185 12.683-8.33l-1.888 7.674h10.518l6.012-24.417c1.503-6.182 4.415-9.391 8.83-9.391 3.475 0 5.635 2.188 5.635 5.801 0 1.047-.094 2.187-.47 3.424l-3.1 11.224a17.069 17.069 0 0 0-.657 4.755c0 5.329 3.1 9.226 9.58 9.226 5.542 0 9.956-3.613 12.398-12.269l-4.132-1.615c-2.067 5.799-3.852 6.847-5.26 6.847-1.41 0-2.161-.95-2.161-2.852 0-.856.189-1.806.47-2.95l3.006-10.934c.751-2.567 1.033-4.844 1.033-6.936 0-8.18-4.884-12.449-10.801-12.449-5.542 0-11.177 5.062-13.995 10.39l2.066-9.563h-16.06l-2.254 8.423h7.514l-4.627 18.76c-3.634 8.18-10.309 8.312-11.146 8.122-1.376-.314-2.255-.843-2.255-2.653 0-1.044.187-2.544.657-4.353L76.1 61.635H58.254L56 70.058h7.42l-4.79 19.816" fill="#FFF"/></g></svg>