<svg width="177" height="150" xmlns="http://www.w3.org/2000/svg"><defs><linearGradient x1="67.927%" y1="40.311%" x2="40.675%" y2="81.641%" id="a"><stop stop-color="#0052CC" offset="18%"/><stop stop-color="#2684FF" offset="100%"/></linearGradient><linearGradient x1="32.305%" y1="-23.325%" x2="59.518%" y2="17.855%" id="b"><stop stop-color="#0052CC" offset="18%"/><stop stop-color="#2684FF" offset="100%"/></linearGradient></defs><g fill-rule="nonzero" fill="none"><path d="m140.706 72.921-47.6-47.334L88.495 21 52.663 56.632 36.278 72.921a4.348 4.348 0 0 0 0 6.158l32.735 32.553L88.494 131l35.827-35.632.558-.55 15.827-15.714A4.344 4.344 0 0 0 142 76.012c0-1.16-.466-2.273-1.294-3.091ZM88.494 92.264 72.14 76l16.355-16.264L104.844 76l-16.35 16.264Z" fill="#2684FF"/><path d="M53 38.645C42.264 27.987 42.21 10.722 52.881 0L17 35.611 36.527 55 53 38.645Z" fill="url(#a)" transform="translate(35 21)"/><path d="M69.447 55 53 71.298C63.786 81.986 63.786 99.312 53 110l36-35.644L69.447 55Z" fill="url(#b)" transform="translate(35 21)"/></g></svg>